<?xml version="1.0" encoding="UTF-8" standalone="no"?>
<svg
   xmlns:dc="http://purl.org/dc/elements/1.1/"
   xmlns:cc="http://creativecommons.org/ns#"
   xmlns:rdf="http://www.w3.org/1999/02/22-rdf-syntax-ns#"
   xmlns:svg="http://www.w3.org/2000/svg"
   xmlns="http://www.w3.org/2000/svg"
   viewBox="0 0 400.71332 241.88933"
   height="241.88933"
   width="400.71332"
   xml:space="preserve"
   id="svg2"
   version="1.1"><metadata
     id="metadata8"><rdf:RDF><cc:Work
         rdf:about=""><dc:format>image/svg+xml</dc:format><dc:type
           rdf:resource="http://purl.org/dc/dcmitype/StillImage" /></cc:Work></rdf:RDF></metadata><defs
     id="defs6"><clipPath
       id="clipPath22"
       clipPathUnits="userSpaceOnUse"><path
         id="path20"
         d="M 0,181.417 H 300.535 V 0 H 0 Z" /></clipPath></defs><g
     transform="matrix(1.3333333,0,0,-1.3333333,0,241.88933)"
     id="g10"><g
       transform="translate(90.7149,45.3543)"
       id="g12"><path
         id="path14"
         style="fill:#274896;fill-opacity:1;fill-rule:nonzero;stroke:none"
         d="M 0,0 -45.361,8.504 V 76.535 L 0,90.708 Z" /></g><g
       id="g16"><g
         clip-path="url(#clipPath22)"
         id="g18"><g
           transform="translate(45.3606,70.2084)"
           id="g24"><path
             id="path26"
             style="fill:#ffee00;fill-opacity:1;fill-rule:nonzero;stroke:none"
             d="m 0,0 v 17.663 c 2.284,-0.622 4.825,-0.913 6.5,0.098 3.664,2.185 9.213,8.875 9.213,8.875 0,0 -2.926,-7.215 -1.822,-9.865 1.166,-2.812 8.099,-2.963 8.099,-2.963 0,0 -7.837,-4.764 -11.484,-7.923 C 6.755,2.664 4.151,-9.178 4.151,-9.178 4.151,-9.178 2.332,-1.588 0,0" /></g><g
           transform="translate(90.7149,101.3691)"
           id="g28"><path
             id="path30"
             style="fill:#e41f25;fill-opacity:1;fill-rule:nonzero;stroke:none"
             d="m 0,0 c -1.569,-0.988 -3.109,-1.766 -4.266,-1.992 -3.645,-0.703 -7.546,3.484 -7.546,3.484 0,0 0.917,-6.122 -1.376,-9.893 -2.414,-3.974 -10.176,-8.951 -10.176,-8.951 0,0 8.58,1.66 10.248,-1.001 1.774,-2.854 2.011,-12.794 2.011,-12.794 0,0 4.372,11.934 8.338,13.56 0.772,0.328 1.737,0.632 2.767,0.925 z" /></g><g
           transform="translate(61.0741,96.8447)"
           id="g32"><path
             id="path34"
             style="fill:#ffffff;fill-opacity:1;fill-rule:nonzero;stroke:none"
             d="m 0,0 c 0,0 4.384,6.869 4.119,9.314 -0.26,2.321 -4.807,3.158 -4.807,3.158 0,0 5.953,1.462 8.549,3.796 2.505,2.255 4.694,6.933 4.694,6.933 0,0 0.554,-3.871 2.781,-4.426 2.298,-0.578 8.437,1.901 8.437,1.901 0,0 -4.846,-4.586 -6.748,-7.087 -1.987,-2.608 0.804,-7.573 0.804,-7.573 0,0 -5.144,1.79 -8.021,1.252 C 6.975,6.73 0,0 0,0" /></g><g
           transform="translate(113.3807,102.0489)"
           id="g36"><path
             id="path38"
             style="fill:#2b2b2a;fill-opacity:1;fill-rule:nonzero;stroke:none"
             d="M 0,0 V 17.012 H 10.752 V 14.385 H 3.093 V 10.04 h 6.8 V 7.414 h -6.8 L 3.093,0 Z" /></g><g
           transform="translate(136.6034,102.7115)"
           id="g40"><path
             id="path42"
             style="fill:#2b2b2a;fill-opacity:1;fill-rule:nonzero;stroke:none"
             d="m 0,0 c -0.573,-0.147 -1.317,-0.299 -2.234,-0.454 -0.917,-0.156 -1.923,-0.233 -3.019,-0.233 -1.031,0 -1.895,0.147 -2.59,0.442 -0.696,0.294 -1.252,0.703 -1.669,1.227 -0.418,0.524 -0.717,1.15 -0.897,1.878 -0.18,0.728 -0.27,1.526 -0.27,2.393 v 7.193 h 2.971 V 5.72 c 0,-1.375 0.2,-2.357 0.601,-2.946 0.401,-0.589 1.101,-0.883 2.099,-0.883 0.36,0 0.74,0.016 1.142,0.048 0.401,0.033 0.699,0.074 0.896,0.123 V 12.446 H 0 Z" /></g><g
           transform="translate(140.2367,114.4703)"
           id="g44"><path
             id="path46"
             style="fill:#2b2b2a;fill-opacity:1;fill-rule:nonzero;stroke:none"
             d="m 0,0 c 0.573,0.163 1.317,0.319 2.234,0.466 0.916,0.148 1.931,0.221 3.044,0.221 1.047,0 1.923,-0.143 2.626,-0.429 0.704,-0.287 1.265,-0.688 1.682,-1.203 0.417,-0.515 0.712,-1.138 0.884,-1.866 0.172,-0.728 0.258,-1.526 0.258,-2.393 v -7.217 H 7.757 v 6.75 c 0,0.688 -0.045,1.273 -0.135,1.755 C 7.532,-3.433 7.385,-3.04 7.18,-2.737 6.976,-2.435 6.697,-2.214 6.346,-2.074 5.994,-1.936 5.564,-1.866 5.057,-1.866 4.68,-1.866 4.288,-1.89 3.878,-1.939 3.469,-1.988 3.167,-2.029 2.97,-2.062 V -12.421 H 0 Z" /></g><g
           transform="translate(156.7821,108.7994)"
           id="g48"><path
             id="path50"
             style="fill:#2b2b2a;fill-opacity:1;fill-rule:nonzero;stroke:none"
             d="m 0,0 c 0,-1.309 0.311,-2.336 0.933,-3.081 0.621,-0.744 1.48,-1.116 2.577,-1.116 0.474,0 0.88,0.02 1.216,0.061 0.335,0.04 0.609,0.086 0.822,0.135 V 3.363 C 5.285,3.543 4.937,3.711 4.504,3.867 4.07,4.022 3.608,4.1 3.117,4.1 2.037,4.1 1.247,3.731 0.748,2.995 0.249,2.259 0,1.26 0,0 M 8.518,-6.063 C 7.929,-6.244 7.187,-6.407 6.296,-6.554 5.404,-6.701 4.468,-6.775 3.485,-6.775 c -1.014,0 -1.923,0.155 -2.724,0.466 -0.802,0.311 -1.486,0.757 -2.05,1.338 -0.565,0.581 -0.999,1.285 -1.301,2.111 -0.303,0.827 -0.454,1.756 -0.454,2.787 0,1.014 0.126,1.935 0.38,2.761 0.254,0.827 0.626,1.535 1.117,2.124 0.491,0.589 1.088,1.043 1.792,1.362 0.703,0.319 1.514,0.479 2.431,0.479 0.621,0 1.169,-0.074 1.644,-0.221 C 4.795,6.285 5.204,6.121 5.548,5.941 v 3.83 l 2.97,0.49 z" /></g><g
           transform="translate(179.4637,102.7115)"
           id="g52"><path
             id="path54"
             style="fill:#2b2b2a;fill-opacity:1;fill-rule:nonzero;stroke:none"
             d="m 0,0 c -0.572,-0.147 -1.317,-0.299 -2.233,-0.454 -0.917,-0.156 -1.923,-0.233 -3.02,-0.233 -1.031,0 -1.894,0.147 -2.59,0.442 -0.695,0.294 -1.252,0.703 -1.669,1.227 -0.418,0.524 -0.717,1.15 -0.896,1.878 -0.18,0.728 -0.27,1.526 -0.27,2.393 v 7.193 h 2.97 V 5.72 c 0,-1.375 0.2,-2.357 0.602,-2.946 0.401,-0.589 1.1,-0.883 2.098,-0.883 0.361,0 0.74,0.016 1.142,0.048 0.401,0.033 0.7,0.074 0.896,0.123 V 12.446 H 0 Z" /></g><g
           transform="translate(186.3134,104.4791)"
           id="g56"><path
             id="path58"
             style="fill:#2b2b2a;fill-opacity:1;fill-rule:nonzero;stroke:none"
             d="m 0,0 c 0.785,0 1.357,0.094 1.718,0.282 0.36,0.188 0.54,0.511 0.54,0.97 0,0.425 -0.193,0.777 -0.577,1.056 C 1.296,2.585 0.662,2.888 -0.222,3.216 -0.762,3.412 -1.257,3.621 -1.706,3.842 -2.157,4.063 -2.545,4.32 -2.873,4.615 -3.2,4.91 -3.458,5.266 -3.646,5.683 -3.834,6.1 -3.928,6.611 -3.928,7.217 c 0,1.179 0.433,2.107 1.301,2.786 0.867,0.679 2.045,1.019 3.535,1.019 0.752,0 1.473,-0.07 2.16,-0.209 0.688,-0.139 1.203,-0.274 1.546,-0.405 L 4.074,8.003 C 3.747,8.15 3.33,8.285 2.822,8.408 2.315,8.531 1.726,8.592 1.055,8.592 0.449,8.592 -0.041,8.489 -0.418,8.285 -0.794,8.08 -0.982,7.765 -0.982,7.34 c 0,-0.213 0.037,-0.401 0.11,-0.565 0.074,-0.164 0.2,-0.315 0.381,-0.454 C -0.312,6.182 -0.074,6.043 0.221,5.904 0.515,5.765 0.875,5.622 1.301,5.474 2.004,5.212 2.602,4.955 3.093,4.701 3.584,4.447 3.988,4.161 4.308,3.842 4.627,3.523 4.86,3.158 5.008,2.75 5.154,2.34 5.229,1.849 5.229,1.276 5.229,0.049 4.774,-0.88 3.866,-1.51 2.958,-2.14 1.66,-2.455 -0.025,-2.455 c -1.129,0 -2.038,0.094 -2.725,0.283 -0.688,0.188 -1.17,0.339 -1.448,0.454 l 0.515,2.479 C -3.241,0.581 -2.713,0.409 -2.1,0.246 -1.485,0.082 -0.786,0 0,0" /></g><g
           transform="translate(203.1522,112.8008)"
           id="g60"><path
             id="path62"
             style="fill:#2b2b2a;fill-opacity:1;fill-rule:nonzero;stroke:none"
             d="M 0,0 C -0.328,-0.344 -0.758,-0.827 -1.289,-1.448 -1.821,-2.07 -2.39,-2.762 -2.995,-3.522 -3.602,-4.284 -4.211,-5.078 -4.824,-5.904 -5.438,-6.73 -5.99,-7.52 -6.481,-8.272 h 6.628 v -2.48 h -10.211 v 1.841 c 0.359,0.655 0.809,1.367 1.349,2.136 0.54,0.769 1.097,1.542 1.669,2.319 0.573,0.778 1.142,1.518 1.706,2.222 0.566,0.704 1.069,1.317 1.51,1.841 h -5.916 v 2.479 l 9.746,0 z" /></g><g
           transform="translate(213.3885,110.0269)"
           id="g64"><path
             id="path66"
             style="fill:#2b2b2a;fill-opacity:1;fill-rule:nonzero;stroke:none"
             d="m 0,0 c 0,0.409 -0.058,0.798 -0.172,1.166 -0.115,0.368 -0.282,0.688 -0.504,0.958 -0.22,0.27 -0.49,0.482 -0.809,0.638 -0.32,0.155 -0.7,0.233 -1.142,0.233 -0.458,0 -0.859,-0.086 -1.203,-0.258 C -4.174,2.565 -4.464,2.34 -4.701,2.062 -4.938,1.784 -5.123,1.464 -5.254,1.105 -5.385,0.745 -5.475,0.376 -5.523,0 Z m -8.616,-1.326 c 0,1.13 0.167,2.119 0.503,2.971 0.335,0.851 0.781,1.559 1.338,2.123 0.555,0.565 1.194,0.99 1.915,1.277 0.719,0.286 1.456,0.429 2.209,0.429 1.767,0 3.145,-0.548 4.136,-1.644 C 2.475,2.733 2.97,1.096 2.97,-1.08 2.97,-1.244 2.966,-1.428 2.958,-1.632 2.949,-1.837 2.938,-2.021 2.921,-2.185 h -8.469 c 0.081,-1.031 0.445,-1.829 1.092,-2.393 0.646,-0.565 1.584,-0.847 2.811,-0.847 0.72,0 1.378,0.065 1.976,0.196 0.598,0.131 1.068,0.271 1.411,0.417 l 0.394,-2.43 C 1.972,-7.324 1.746,-7.41 1.46,-7.5 1.174,-7.589 0.847,-7.671 0.479,-7.745 0.11,-7.818 -0.287,-7.88 -0.712,-7.929 c -0.426,-0.049 -0.859,-0.073 -1.302,-0.073 -1.129,0 -2.11,0.167 -2.945,0.502 -0.835,0.336 -1.521,0.802 -2.062,1.4 -0.541,0.597 -0.941,1.301 -1.203,2.111 -0.261,0.81 -0.392,1.697 -0.392,2.663" /></g><g
           transform="translate(113.3807,79.3716)"
           id="g68"><path
             id="path70"
             style="fill:#2b2b2a;fill-opacity:1;fill-rule:nonzero;stroke:none"
             d="M 0,0 V 17.012 H 10.924 V 14.385 H 3.093 v -4.197 h 6.971 V 7.61 H 3.093 V 2.626 h 8.42 V 0 Z" /></g><g
           transform="translate(137.5848,80.0342)"
           id="g72"><path
             id="path74"
             style="fill:#2b2b2a;fill-opacity:1;fill-rule:nonzero;stroke:none"
             d="m 0,0 c -0.573,-0.147 -1.317,-0.299 -2.234,-0.454 -0.917,-0.156 -1.923,-0.233 -3.019,-0.233 -1.031,0 -1.895,0.147 -2.59,0.442 -0.696,0.294 -1.252,0.703 -1.669,1.227 -0.418,0.524 -0.717,1.15 -0.897,1.878 -0.18,0.728 -0.27,1.526 -0.27,2.393 v 7.193 h 2.971 V 5.72 c 0,-1.375 0.2,-2.357 0.601,-2.946 0.401,-0.589 1.101,-0.883 2.099,-0.883 0.36,0 0.74,0.016 1.142,0.048 0.401,0.033 0.699,0.074 0.896,0.123 V 12.446 H 0 Z" /></g><g
           transform="translate(148.5336,89.5347)"
           id="g76"><path
             id="path78"
             style="fill:#2b2b2a;fill-opacity:1;fill-rule:nonzero;stroke:none"
             d="m 0,0 c -0.246,0.082 -0.585,0.167 -1.019,0.257 -0.434,0.09 -0.937,0.136 -1.509,0.136 -0.328,0 -0.676,-0.034 -1.044,-0.099 C -3.94,0.229 -4.198,0.172 -4.345,0.123 v -10.286 h -2.97 V 2.062 c 0.572,0.212 1.289,0.413 2.148,0.601 0.859,0.188 1.812,0.283 2.859,0.283 0.197,0 0.426,-0.013 0.688,-0.037 0.262,-0.025 0.523,-0.058 0.786,-0.098 0.261,-0.041 0.515,-0.091 0.76,-0.148 0.246,-0.057 0.442,-0.11 0.59,-0.159 z" /></g><g
           transform="translate(159.5311,86.1221)"
           id="g80"><path
             id="path82"
             style="fill:#2b2b2a;fill-opacity:1;fill-rule:nonzero;stroke:none"
             d="M 0,0 C 0,1.277 -0.273,2.287 -0.822,3.032 -1.371,3.776 -2.135,4.149 -3.117,4.149 -4.1,4.149 -4.865,3.776 -5.413,3.032 -5.961,2.287 -6.235,1.277 -6.235,0 c 0,-1.293 0.274,-2.316 0.822,-3.068 0.548,-0.753 1.313,-1.129 2.296,-1.129 0.982,0 1.746,0.376 2.295,1.129 C -0.273,-2.316 0,-1.293 0,0 M 3.043,0 C 3.043,-1.015 2.896,-1.939 2.602,-2.774 2.307,-3.608 1.891,-4.32 1.35,-4.909 0.811,-5.499 0.16,-5.957 -0.602,-6.284 c -0.761,-0.328 -1.599,-0.491 -2.515,-0.491 -0.917,0 -1.752,0.163 -2.505,0.491 -0.753,0.327 -1.399,0.785 -1.939,1.375 -0.54,0.589 -0.961,1.301 -1.264,2.135 -0.303,0.835 -0.454,1.759 -0.454,2.774 0,1.015 0.151,1.935 0.454,2.762 0.303,0.826 0.728,1.534 1.277,2.123 0.548,0.59 1.198,1.044 1.951,1.363 0.753,0.319 1.579,0.479 2.48,0.479 0.898,0 1.73,-0.16 2.49,-0.479 C 0.135,5.929 0.785,5.475 1.326,4.885 1.865,4.296 2.287,3.588 2.59,2.762 2.893,1.935 3.043,1.015 3.043,0" /></g><g
           transform="translate(174.0145,85.7296)"
           id="g84"><path
             id="path86"
             style="fill:#2b2b2a;fill-opacity:1;fill-rule:nonzero;stroke:none"
             d="M 0,0 C 0,1.326 -0.299,2.356 -0.896,3.093 -1.493,3.83 -2.455,4.198 -3.78,4.198 -4.059,4.198 -4.349,4.186 -4.651,4.161 -4.955,4.136 -5.253,4.083 -5.548,4.001 v -7.339 c 0.262,-0.181 0.61,-0.349 1.043,-0.504 0.434,-0.156 0.897,-0.233 1.388,-0.233 1.08,0 1.869,0.368 2.368,1.105 C -0.25,-2.234 0,-1.244 0,0 m 3.044,0.049 c 0,-0.982 -0.127,-1.882 -0.38,-2.7 C 2.41,-3.47 2.046,-4.173 1.571,-4.762 1.097,-5.352 0.503,-5.81 -0.209,-6.137 -0.92,-6.464 -1.727,-6.628 -2.627,-6.628 c -0.605,0 -1.162,0.074 -1.669,0.221 -0.507,0.147 -0.925,0.311 -1.252,0.491 v -4.983 h -2.97 V 6.063 c 0.605,0.164 1.35,0.319 2.234,0.467 0.884,0.147 1.816,0.221 2.799,0.221 1.014,0 1.923,-0.156 2.724,-0.467 C 0.041,5.973 0.725,5.527 1.289,4.946 1.854,4.365 2.287,3.662 2.59,2.835 2.893,2.009 3.044,1.08 3.044,0.049" /></g><g
           transform="translate(187.8846,87.3497)"
           id="g88"><path
             id="path90"
             style="fill:#2b2b2a;fill-opacity:1;fill-rule:nonzero;stroke:none"
             d="m 0,0 c 0,0.409 -0.058,0.798 -0.172,1.166 -0.115,0.368 -0.282,0.688 -0.504,0.958 -0.22,0.27 -0.49,0.482 -0.809,0.638 -0.32,0.155 -0.7,0.233 -1.142,0.233 -0.458,0 -0.859,-0.086 -1.203,-0.258 C -4.174,2.565 -4.464,2.34 -4.701,2.062 -4.938,1.784 -5.123,1.464 -5.254,1.105 -5.385,0.745 -5.475,0.376 -5.523,0 Z m -8.616,-1.326 c 0,1.13 0.167,2.119 0.503,2.971 0.335,0.851 0.781,1.559 1.338,2.123 0.555,0.565 1.194,0.99 1.915,1.277 0.719,0.286 1.456,0.429 2.209,0.429 1.767,0 3.145,-0.548 4.136,-1.644 C 2.475,2.733 2.97,1.096 2.97,-1.08 2.97,-1.244 2.966,-1.428 2.958,-1.632 2.949,-1.837 2.938,-2.021 2.921,-2.185 h -8.469 c 0.081,-1.031 0.445,-1.829 1.092,-2.393 0.646,-0.565 1.584,-0.847 2.811,-0.847 0.72,0 1.378,0.065 1.976,0.196 0.598,0.131 1.068,0.271 1.411,0.417 l 0.394,-2.43 C 1.972,-7.324 1.746,-7.41 1.46,-7.5 1.174,-7.589 0.847,-7.671 0.479,-7.745 0.11,-7.818 -0.287,-7.88 -0.712,-7.929 c -0.426,-0.049 -0.859,-0.073 -1.302,-0.073 -1.129,0 -2.11,0.167 -2.945,0.502 -0.835,0.336 -1.521,0.802 -2.062,1.4 -0.541,0.597 -0.941,1.301 -1.203,2.111 -0.261,0.81 -0.392,1.697 -0.392,2.663" /></g><g
           transform="translate(197.1385,95.9659)"
           id="g92"><path
             id="path94"
             style="fill:#2b2b2a;fill-opacity:1;fill-rule:nonzero;stroke:none"
             d="m 0,0 c 0,-0.556 -0.181,-0.998 -0.54,-1.325 -0.36,-0.328 -0.785,-0.491 -1.276,-0.491 -0.508,0 -0.942,0.163 -1.301,0.491 -0.361,0.327 -0.54,0.769 -0.54,1.325 0,0.573 0.179,1.023 0.54,1.351 0.359,0.327 0.793,0.49 1.301,0.49 0.491,0 0.916,-0.163 1.276,-0.49 C -0.181,1.023 0,0.573 0,0 m -4.935,-21.16 c -0.212,0 -0.51,0.02 -0.895,0.061 -0.385,0.041 -0.725,0.119 -1.019,0.233 l 0.393,2.43 c 0.36,-0.114 0.794,-0.171 1.301,-0.171 0.687,0 1.17,0.2 1.448,0.601 0.278,0.402 0.418,1.003 0.418,1.804 v 12.446 h 2.97 V -16.25 c 0,-1.67 -0.397,-2.905 -1.191,-3.708 -0.794,-0.801 -1.935,-1.202 -3.425,-1.202" /></g><g
           transform="translate(203.6688,81.8018)"
           id="g96"><path
             id="path98"
             style="fill:#2b2b2a;fill-opacity:1;fill-rule:nonzero;stroke:none"
             d="m 0,0 c 0.785,0 1.357,0.094 1.718,0.282 0.36,0.188 0.54,0.511 0.54,0.97 0,0.425 -0.193,0.777 -0.577,1.056 C 1.296,2.585 0.662,2.888 -0.222,3.216 -0.762,3.412 -1.257,3.621 -1.706,3.842 -2.157,4.063 -2.545,4.32 -2.873,4.615 -3.2,4.91 -3.458,5.266 -3.646,5.683 -3.834,6.1 -3.928,6.611 -3.928,7.217 c 0,1.179 0.433,2.107 1.301,2.786 0.867,0.679 2.045,1.019 3.535,1.019 0.752,0 1.473,-0.07 2.16,-0.209 0.688,-0.139 1.203,-0.274 1.546,-0.405 L 4.074,8.003 C 3.747,8.15 3.33,8.285 2.822,8.408 2.315,8.531 1.726,8.592 1.055,8.592 0.449,8.592 -0.041,8.489 -0.418,8.285 -0.794,8.08 -0.982,7.765 -0.982,7.34 c 0,-0.213 0.037,-0.401 0.11,-0.565 0.074,-0.164 0.2,-0.315 0.381,-0.454 C -0.312,6.182 -0.074,6.043 0.221,5.904 0.515,5.765 0.875,5.622 1.301,5.474 2.004,5.212 2.602,4.955 3.093,4.701 3.584,4.447 3.988,4.161 4.308,3.842 4.627,3.523 4.86,3.158 5.008,2.75 5.154,2.34 5.229,1.849 5.229,1.276 5.229,0.049 4.774,-0.88 3.866,-1.51 2.958,-2.14 1.66,-2.455 -0.025,-2.455 c -1.129,0 -2.038,0.094 -2.725,0.283 -0.688,0.188 -1.17,0.339 -1.448,0.454 l 0.515,2.479 C -3.241,0.581 -2.713,0.409 -2.1,0.246 -1.485,0.082 -0.786,0 0,0" /></g><g
           transform="translate(214.493,87.2027)"
           id="g100"><path
             id="path102"
             style="fill:#2b2b2a;fill-opacity:1;fill-rule:nonzero;stroke:none"
             d="m 0,0 c 0.376,0.393 0.777,0.813 1.203,1.264 0.425,0.45 0.843,0.9 1.252,1.35 0.409,0.45 0.798,0.884 1.166,1.301 0.368,0.418 0.683,0.781 0.945,1.092 h 3.51 C 7.258,4.091 6.395,3.142 5.486,2.16 4.578,1.178 3.666,0.221 2.75,-0.712 c 0.49,-0.41 1.006,-0.905 1.546,-1.485 0.54,-0.581 1.063,-1.199 1.571,-1.854 0.507,-0.655 0.982,-1.309 1.424,-1.964 0.441,-0.654 0.81,-1.26 1.105,-1.816 H 4.959 C 4.664,-7.324 4.324,-6.792 3.94,-6.235 3.556,-5.679 3.143,-5.139 2.7,-4.615 2.259,-4.092 1.809,-3.597 1.351,-3.13 0.892,-2.664 0.442,-2.267 0,-1.939 V -7.831 H -2.97 V 8.69 L 0,9.181 Z" /></g><path
           id="path104"
           style="fill:#2b2b2a;fill-opacity:1;fill-rule:nonzero;stroke:none"
           d="m 227.896,79.372 h -2.97 V 92.21 h 2.97 z m 0.32,16.594 c 0,-0.556 -0.181,-0.998 -0.54,-1.325 -0.361,-0.328 -0.785,-0.492 -1.277,-0.492 -0.508,0 -0.941,0.164 -1.3,0.492 -0.361,0.327 -0.541,0.769 -0.541,1.325 0,0.573 0.18,1.023 0.541,1.35 0.359,0.328 0.792,0.491 1.3,0.491 0.492,0 0.916,-0.163 1.277,-0.491 0.359,-0.327 0.54,-0.777 0.54,-1.35" /><g
           transform="translate(239.4344,87.3497)"
           id="g106"><path
             id="path108"
             style="fill:#2b2b2a;fill-opacity:1;fill-rule:nonzero;stroke:none"
             d="m 0,0 c 0,0.409 -0.058,0.798 -0.172,1.166 -0.115,0.368 -0.282,0.688 -0.504,0.958 -0.22,0.27 -0.49,0.482 -0.809,0.638 -0.32,0.155 -0.7,0.233 -1.142,0.233 -0.458,0 -0.859,-0.086 -1.203,-0.258 C -4.174,2.565 -4.464,2.34 -4.701,2.062 -4.938,1.784 -5.123,1.464 -5.254,1.105 -5.385,0.745 -5.475,0.376 -5.523,0 Z m -8.616,-1.326 c 0,1.13 0.167,2.119 0.503,2.971 0.335,0.851 0.781,1.559 1.338,2.123 0.555,0.565 1.194,0.99 1.915,1.277 0.719,0.286 1.456,0.429 2.209,0.429 1.767,0 3.145,-0.548 4.136,-1.644 C 2.475,2.733 2.97,1.096 2.97,-1.08 2.97,-1.244 2.966,-1.428 2.958,-1.632 2.949,-1.837 2.938,-2.021 2.921,-2.185 h -8.469 c 0.081,-1.031 0.445,-1.829 1.092,-2.393 0.646,-0.565 1.584,-0.847 2.811,-0.847 0.72,0 1.378,0.065 1.976,0.196 0.598,0.131 1.068,0.271 1.411,0.417 l 0.394,-2.43 C 1.972,-7.324 1.746,-7.41 1.46,-7.5 1.174,-7.589 0.847,-7.671 0.479,-7.745 0.11,-7.818 -0.287,-7.88 -0.712,-7.929 c -0.426,-0.049 -0.859,-0.073 -1.302,-0.073 -1.129,0 -2.11,0.167 -2.945,0.502 -0.835,0.336 -1.521,0.802 -2.062,1.4 -0.541,0.597 -0.941,1.301 -1.203,2.111 -0.261,0.81 -0.392,1.697 -0.392,2.663" /></g><path
           id="path110"
           style="fill:#2b2b2a;fill-opacity:1;fill-rule:nonzero;stroke:none"
           d="m 113.4,67.905 h 1.572 V 56.678 H 113.4 Z" /><g
           transform="translate(117.5795,64.8599)"
           id="g112"><path
             id="path114"
             style="fill:#2b2b2a;fill-opacity:1;fill-rule:nonzero;stroke:none"
             d="m 0,0 c 0.346,0.086 0.805,0.178 1.377,0.275 0.572,0.098 1.231,0.146 1.977,0.146 0.669,0 1.225,-0.095 1.668,-0.283 0.443,-0.19 0.796,-0.454 1.061,-0.794 0.265,-0.341 0.451,-0.748 0.559,-1.223 0.108,-0.475 0.162,-0.999 0.162,-1.572 v -4.73 H 5.297 v 4.406 c 0,0.519 -0.035,0.962 -0.105,1.329 -0.07,0.367 -0.186,0.664 -0.348,0.891 -0.162,0.226 -0.378,0.391 -0.648,0.494 -0.27,0.103 -0.605,0.154 -1.005,0.154 -0.162,0 -0.329,-0.006 -0.502,-0.016 C 2.517,-0.935 2.352,-0.948 2.195,-0.964 2.039,-0.98 1.898,-0.999 1.774,-1.021 1.65,-1.042 1.561,-1.059 1.507,-1.069 v -7.112 l -1.507,0 z" /></g><g
           transform="translate(128.2069,65.2969)"
           id="g116"><path
             id="path118"
             style="fill:#2b2b2a;fill-opacity:1;fill-rule:nonzero;stroke:none"
             d="M 0,0 H 3.191 V -1.263 H 0 v -3.888 c 0,-0.422 0.032,-0.77 0.097,-1.045 0.065,-0.276 0.162,-0.492 0.292,-0.648 0.129,-0.157 0.291,-0.267 0.486,-0.332 0.194,-0.065 0.421,-0.097 0.68,-0.097 0.454,0 0.818,0.05 1.093,0.153 0.276,0.103 0.468,0.176 0.576,0.219 L 3.515,-8.148 C 3.364,-8.224 3.099,-8.318 2.721,-8.432 2.343,-8.545 1.912,-8.602 1.425,-8.602 c -0.572,0 -1.045,0.073 -1.417,0.219 -0.373,0.146 -0.673,0.364 -0.899,0.656 -0.227,0.291 -0.386,0.65 -0.478,1.077 -0.092,0.427 -0.138,0.921 -0.138,1.483 V 2.349 L 0,2.608 Z" /></g><g
           transform="translate(138.3798,61.8951)"
           id="g120"><path
             id="path122"
             style="fill:#2b2b2a;fill-opacity:1;fill-rule:nonzero;stroke:none"
             d="M 0,0 C 0.011,0.681 -0.159,1.239 -0.51,1.677 -0.861,2.114 -1.344,2.333 -1.96,2.333 -2.306,2.333 -2.611,2.265 -2.875,2.13 -3.14,1.995 -3.364,1.82 -3.547,1.604 -3.731,1.388 -3.875,1.14 -3.977,0.859 -4.08,0.578 -4.147,0.292 -4.179,0 Z m -5.783,-0.826 c 0,0.745 0.108,1.396 0.324,1.952 0.216,0.556 0.502,1.018 0.858,1.385 0.357,0.367 0.767,0.642 1.232,0.826 0.464,0.184 0.939,0.276 1.425,0.276 1.134,0 2.004,-0.354 2.609,-1.061 C 1.269,1.844 1.572,0.767 1.572,-0.68 v -0.252 c 0,-0.102 -0.006,-0.196 -0.016,-0.283 h -5.768 c 0.065,-0.875 0.318,-1.539 0.762,-1.993 0.442,-0.453 1.134,-0.68 2.073,-0.68 0.529,0 0.975,0.046 1.337,0.138 0.361,0.091 0.634,0.181 0.818,0.267 l 0.21,-1.264 C 0.805,-4.844 0.483,-4.946 0.024,-5.054 c -0.459,-0.109 -0.98,-0.162 -1.563,-0.162 -0.734,0 -1.369,0.111 -1.903,0.332 -0.535,0.221 -0.975,0.526 -1.321,0.915 -0.345,0.389 -0.602,0.85 -0.769,1.385 -0.168,0.535 -0.251,1.121 -0.251,1.758" /></g><g
           transform="translate(144.5682,56.6788)"
           id="g124"><path
             id="path126"
             style="fill:#2b2b2a;fill-opacity:1;fill-rule:nonzero;stroke:none"
             d="M 0,0 C -0.929,0.021 -1.587,0.221 -1.977,0.6 -2.365,0.978 -2.56,1.566 -2.56,2.365 v 10.109 l 1.507,0.259 V 2.608 c 0,-0.248 0.021,-0.453 0.065,-0.615 0.043,-0.162 0.113,-0.292 0.21,-0.389 0.097,-0.097 0.227,-0.17 0.389,-0.219 0.162,-0.049 0.362,-0.089 0.599,-0.121 z" /></g><path
           id="path128"
           style="fill:#2b2b2a;fill-opacity:1;fill-rule:nonzero;stroke:none"
           d="m 147.89,56.679 h -1.507 v 8.424 h 1.507 z m -0.762,9.947 c -0.27,0 -0.5,0.089 -0.689,0.267 -0.189,0.178 -0.283,0.418 -0.283,0.721 0,0.302 0.094,0.542 0.283,0.721 0.189,0.178 0.419,0.267 0.689,0.267 0.27,0 0.499,-0.089 0.688,-0.267 0.189,-0.179 0.284,-0.419 0.284,-0.721 0,-0.303 -0.095,-0.543 -0.284,-0.721 -0.189,-0.178 -0.418,-0.267 -0.688,-0.267" /><g
           transform="translate(155.6654,63.7745)"
           id="g130"><path
             id="path132"
             style="fill:#2b2b2a;fill-opacity:1;fill-rule:nonzero;stroke:none"
             d="m 0,0 c -0.151,0.043 -0.354,0.083 -0.607,0.122 -0.254,0.037 -0.598,0.056 -1.029,0.056 -0.81,0 -1.434,-0.265 -1.871,-0.794 -0.438,-0.529 -0.657,-1.231 -0.657,-2.106 0,-0.486 0.062,-0.902 0.187,-1.247 0.124,-0.346 0.291,-0.632 0.502,-0.859 0.211,-0.227 0.454,-0.394 0.729,-0.502 0.275,-0.108 0.559,-0.162 0.85,-0.162 0.4,0 0.767,0.057 1.102,0.17 0.335,0.114 0.6,0.246 0.794,0.397 z m 0.016,-6.253 c -0.129,-0.087 -0.381,-0.198 -0.753,-0.332 -0.373,-0.136 -0.807,-0.203 -1.304,-0.203 -0.508,0 -0.986,0.081 -1.434,0.243 -0.448,0.162 -0.84,0.413 -1.174,0.753 -0.335,0.341 -0.6,0.764 -0.794,1.272 -0.195,0.508 -0.292,1.112 -0.292,1.814 0,0.616 0.092,1.18 0.276,1.693 0.183,0.513 0.45,0.956 0.801,1.329 0.351,0.372 0.781,0.664 1.288,0.874 0.508,0.211 1.08,0.316 1.718,0.316 0.701,0 1.314,-0.051 1.838,-0.153 C 0.711,1.25 1.15,1.155 1.506,1.069 v -7.517 c 0,-1.296 -0.334,-2.235 -1.004,-2.819 -0.669,-0.583 -1.685,-0.874 -3.045,-0.874 -0.53,0 -1.029,0.043 -1.499,0.129 -0.47,0.087 -0.877,0.189 -1.223,0.308 l 0.275,1.312 c 0.303,-0.118 0.673,-0.224 1.11,-0.316 0.438,-0.091 0.894,-0.137 1.369,-0.137 0.896,0 1.541,0.178 1.936,0.534 0.394,0.357 0.591,0.924 0.591,1.701 z" /></g><g
           transform="translate(164.9955,61.8951)"
           id="g134"><path
             id="path136"
             style="fill:#2b2b2a;fill-opacity:1;fill-rule:nonzero;stroke:none"
             d="M 0,0 C 0.011,0.681 -0.159,1.239 -0.51,1.677 -0.861,2.114 -1.345,2.333 -1.96,2.333 -2.306,2.333 -2.61,2.265 -2.875,2.13 -3.14,1.995 -3.364,1.82 -3.548,1.604 -3.731,1.388 -3.874,1.14 -3.977,0.859 -4.08,0.578 -4.147,0.292 -4.18,0 Z m -5.783,-0.826 c 0,0.745 0.107,1.396 0.324,1.952 0.216,0.556 0.502,1.018 0.858,1.385 0.357,0.367 0.767,0.642 1.232,0.826 0.464,0.184 0.939,0.276 1.426,0.276 1.133,0 2.003,-0.354 2.607,-1.061 C 1.27,1.844 1.571,0.767 1.571,-0.68 v -0.252 c 0,-0.102 -0.005,-0.196 -0.015,-0.283 h -5.768 c 0.065,-0.875 0.318,-1.539 0.762,-1.993 0.442,-0.453 1.134,-0.68 2.073,-0.68 0.529,0 0.975,0.046 1.337,0.138 0.361,0.091 0.634,0.181 0.817,0.267 L 0.988,-4.747 C 0.805,-4.844 0.483,-4.946 0.024,-5.054 c -0.459,-0.109 -0.98,-0.162 -1.563,-0.162 -0.734,0 -1.368,0.111 -1.903,0.332 -0.535,0.221 -0.975,0.526 -1.321,0.915 -0.345,0.389 -0.602,0.85 -0.769,1.385 -0.167,0.535 -0.251,1.121 -0.251,1.758" /></g><g
           transform="translate(168.6566,64.8599)"
           id="g138"><path
             id="path140"
             style="fill:#2b2b2a;fill-opacity:1;fill-rule:nonzero;stroke:none"
             d="m 0,0 c 0.346,0.086 0.805,0.178 1.377,0.275 0.572,0.098 1.231,0.146 1.977,0.146 0.669,0 1.225,-0.095 1.668,-0.283 0.443,-0.19 0.796,-0.454 1.061,-0.794 0.265,-0.341 0.451,-0.748 0.56,-1.223 0.107,-0.475 0.161,-0.999 0.161,-1.572 v -4.73 H 5.298 v 4.406 c 0,0.519 -0.035,0.962 -0.106,1.329 -0.07,0.367 -0.186,0.664 -0.348,0.891 -0.162,0.226 -0.378,0.391 -0.648,0.494 -0.27,0.103 -0.605,0.154 -1.005,0.154 -0.162,0 -0.329,-0.006 -0.502,-0.016 C 2.517,-0.935 2.352,-0.948 2.195,-0.964 2.038,-0.98 1.898,-0.999 1.774,-1.021 1.649,-1.042 1.561,-1.059 1.507,-1.069 v -7.112 l -1.507,0 z" /></g><g
           transform="translate(179.2845,65.2969)"
           id="g142"><path
             id="path144"
             style="fill:#2b2b2a;fill-opacity:1;fill-rule:nonzero;stroke:none"
             d="M 0,0 H 3.191 V -1.263 H 0 v -3.888 c 0,-0.422 0.033,-0.77 0.098,-1.045 0.064,-0.276 0.162,-0.492 0.291,-0.648 0.13,-0.157 0.292,-0.267 0.486,-0.332 0.194,-0.065 0.421,-0.097 0.681,-0.097 0.453,0 0.818,0.05 1.093,0.153 0.276,0.103 0.467,0.176 0.576,0.219 L 3.516,-8.148 C 3.364,-8.224 3.1,-8.318 2.722,-8.432 c -0.378,-0.113 -0.81,-0.17 -1.296,-0.17 -0.572,0 -1.045,0.073 -1.417,0.219 -0.373,0.146 -0.673,0.364 -0.9,0.656 -0.226,0.291 -0.386,0.65 -0.477,1.077 -0.093,0.427 -0.138,0.921 -0.138,1.483 V 2.349 L 0,2.608 Z" /></g><g
           transform="translate(184.307,64.8599)"
           id="g146"><path
             id="path148"
             style="fill:#2b2b2a;fill-opacity:1;fill-rule:nonzero;stroke:none"
             d="m 0,0 c 0.346,0.086 0.805,0.178 1.377,0.275 0.572,0.098 1.231,0.146 1.977,0.146 0.669,0 1.225,-0.095 1.668,-0.283 0.443,-0.19 0.796,-0.454 1.061,-0.794 0.265,-0.341 0.451,-0.748 0.56,-1.223 0.107,-0.475 0.161,-0.999 0.161,-1.572 v -4.73 H 5.298 v 4.406 c 0,0.519 -0.035,0.962 -0.106,1.329 -0.07,0.367 -0.186,0.664 -0.348,0.891 -0.162,0.226 -0.378,0.391 -0.648,0.494 -0.27,0.103 -0.605,0.154 -1.005,0.154 -0.162,0 -0.329,-0.006 -0.502,-0.016 C 2.517,-0.935 2.352,-0.948 2.195,-0.964 2.038,-0.98 1.898,-0.999 1.774,-1.021 1.649,-1.042 1.561,-1.059 1.507,-1.069 v -7.112 l -1.507,0 z" /></g><g
           transform="translate(192.2455,55.1075)"
           id="g150"><path
             id="path152"
             style="fill:#2b2b2a;fill-opacity:1;fill-rule:nonzero;stroke:none"
             d="m 0,0 c 0.119,-0.054 0.272,-0.105 0.462,-0.154 0.188,-0.049 0.375,-0.073 0.559,-0.073 0.593,0 1.058,0.132 1.393,0.397 C 2.749,0.435 3.051,0.864 3.321,1.458 2.641,2.754 2.006,4.128 1.418,5.581 0.829,7.033 0.341,8.505 -0.049,9.995 h 1.62 C 1.69,9.509 1.833,8.985 2.001,8.424 2.168,7.862 2.354,7.284 2.56,6.69 2.765,6.096 2.986,5.502 3.224,4.909 3.461,4.314 3.71,3.742 3.969,3.191 4.38,4.325 4.736,5.448 5.038,6.561 5.341,7.673 5.627,8.818 5.897,9.995 H 7.452 C 7.063,8.408 6.631,6.882 6.156,5.419 5.681,3.955 5.168,2.586 4.617,1.312 4.401,0.826 4.177,0.408 3.945,0.057 3.713,-0.294 3.456,-0.583 3.176,-0.81 2.895,-1.037 2.578,-1.204 2.228,-1.312 1.877,-1.42 1.479,-1.474 1.037,-1.474 c -0.119,0 -0.243,0.008 -0.373,0.024 -0.129,0.016 -0.257,0.038 -0.381,0.065 -0.124,0.027 -0.237,0.056 -0.34,0.089 -0.102,0.032 -0.175,0.059 -0.218,0.081 z" /></g><g
           transform="translate(208.0736,66.6417)"
           id="g154"><path
             id="path156"
             style="fill:#2b2b2a;fill-opacity:1;fill-rule:nonzero;stroke:none"
             d="m 0,0 c -0.67,0 -1.183,-0.016 -1.539,-0.048 v -4.229 h 1.117 c 0.54,0 1.026,0.027 1.458,0.081 0.433,0.054 0.797,0.157 1.094,0.308 0.297,0.151 0.526,0.365 0.688,0.64 0.162,0.275 0.244,0.64 0.244,1.094 0,0.421 -0.082,0.772 -0.244,1.052 -0.162,0.281 -0.38,0.503 -0.656,0.665 C 1.887,-0.275 1.563,-0.162 1.19,-0.097 0.817,-0.032 0.421,0 0,0 m 2.381,-5.265 c 0.173,-0.216 0.391,-0.5 0.656,-0.85 0.265,-0.351 0.537,-0.74 0.818,-1.167 C 4.136,-7.708 4.414,-8.154 4.689,-8.618 4.965,-9.083 5.2,-9.531 5.395,-9.963 H 3.677 c -0.216,0.41 -0.451,0.826 -0.704,1.248 -0.254,0.421 -0.511,0.823 -0.77,1.206 -0.26,0.384 -0.516,0.743 -0.769,1.078 C 1.18,-6.097 0.95,-5.805 0.745,-5.557 0.604,-5.567 0.461,-5.573 0.315,-5.573 H -0.13 -1.539 v -4.39 H -3.11 V 1.102 c 0.442,0.107 0.936,0.18 1.482,0.218 0.545,0.038 1.044,0.057 1.498,0.057 1.577,0 2.778,-0.297 3.605,-0.891 0.826,-0.594 1.239,-1.48 1.239,-2.657 0,-0.745 -0.197,-1.382 -0.591,-1.912 C 3.729,-4.612 3.147,-5.006 2.381,-5.265" /></g><g
           transform="translate(220.8383,61.085)"
           id="g158"><path
             id="path160"
             style="fill:#2b2b2a;fill-opacity:1;fill-rule:nonzero;stroke:none"
             d="M 0,0 C 0,0.95 -0.213,1.704 -0.64,2.26 -1.066,2.816 -1.646,3.094 -2.381,3.094 -3.116,3.094 -3.696,2.816 -4.123,2.26 -4.55,1.704 -4.763,0.95 -4.763,0 c 0,-0.95 0.213,-1.704 0.64,-2.26 0.427,-0.556 1.007,-0.834 1.742,-0.834 0.735,0 1.315,0.278 1.741,0.834 C -0.213,-1.704 0,-0.95 0,0 m 1.571,0 c 0,-0.669 -0.096,-1.274 -0.291,-1.814 -0.194,-0.54 -0.468,-1.005 -0.818,-1.394 -0.351,-0.388 -0.77,-0.688 -1.256,-0.898 -0.485,-0.211 -1.015,-0.316 -1.587,-0.316 -0.573,0 -1.101,0.105 -1.588,0.316 -0.486,0.21 -0.904,0.51 -1.256,0.898 -0.35,0.389 -0.623,0.854 -0.817,1.394 -0.194,0.54 -0.292,1.145 -0.292,1.814 0,0.659 0.098,1.261 0.292,1.807 0.194,0.545 0.467,1.012 0.817,1.401 0.352,0.389 0.77,0.688 1.256,0.899 0.487,0.21 1.015,0.316 1.588,0.316 0.572,0 1.102,-0.106 1.587,-0.316 C -0.308,3.896 0.111,3.597 0.462,3.208 0.812,2.819 1.086,2.352 1.28,1.807 1.475,1.261 1.571,0.659 1.571,0" /></g><g
           transform="translate(229.7152,63.9688)"
           id="g162"><path
             id="path164"
             style="fill:#2b2b2a;fill-opacity:1;fill-rule:nonzero;stroke:none"
             d="m 0,0 c -0.227,-0.249 -0.526,-0.6 -0.898,-1.053 -0.373,-0.454 -0.773,-0.956 -1.2,-1.507 -0.426,-0.55 -0.853,-1.128 -1.28,-1.733 -0.427,-0.605 -0.802,-1.183 -1.125,-1.733 H 0.13 V -7.29 h -6.432 v 1.004 c 0.26,0.475 0.578,0.999 0.956,1.572 0.378,0.572 0.775,1.142 1.191,1.709 0.416,0.567 0.821,1.102 1.215,1.604 0.394,0.502 0.737,0.925 1.029,1.271 h -4.164 v 1.264 l 6.075,0 z" /></g><g
           transform="translate(238.5599,56.6788)"
           id="g166"><path
             id="path168"
             style="fill:#2b2b2a;fill-opacity:1;fill-rule:nonzero;stroke:none"
             d="M 0,0 C -0.302,0.778 -0.623,1.666 -0.964,2.665 -1.304,3.664 -1.614,4.703 -1.896,5.783 -2.176,4.703 -2.483,3.664 -2.818,2.665 -3.153,1.666 -3.472,0.778 -3.774,0 H -5.087 C -5.583,1.112 -6.069,2.381 -6.545,3.807 -7.02,5.232 -7.468,6.771 -7.889,8.424 h 1.619 c 0.109,-0.508 0.239,-1.059 0.39,-1.653 0.151,-0.593 0.31,-1.188 0.478,-1.781 0.167,-0.594 0.342,-1.167 0.526,-1.718 0.184,-0.55 0.356,-1.031 0.519,-1.441 0.183,0.507 0.364,1.044 0.543,1.611 0.177,0.567 0.347,1.14 0.509,1.718 0.162,0.577 0.317,1.144 0.462,1.701 0.146,0.556 0.273,1.077 0.381,1.563 h 1.247 C -1.117,7.938 -0.999,7.417 -0.858,6.861 -0.718,6.304 -0.566,5.737 -0.404,5.16 -0.242,4.582 -0.072,4.009 0.105,3.442 0.284,2.875 0.465,2.338 0.648,1.831 0.811,2.241 0.98,2.722 1.158,3.272 1.337,3.823 1.513,4.396 1.686,4.99 1.857,5.583 2.02,6.178 2.171,6.771 2.322,7.365 2.452,7.916 2.56,8.424 H 4.115 C 3.694,6.771 3.246,5.232 2.771,3.807 2.295,2.381 1.81,1.112 1.312,0 Z" /></g><g
           transform="translate(249.4301,68.294)"
           id="g170"><path
             id="path172"
             style="fill:#2b2b2a;fill-opacity:1;fill-rule:nonzero;stroke:none"
             d="m 0,0 -2.284,-2.219 -0.762,0.68 2.074,2.495 z m 0.421,-7.209 c 0,0.95 -0.213,1.704 -0.64,2.26 -0.427,0.556 -1.007,0.834 -1.741,0.834 -0.735,0 -1.315,-0.278 -1.742,-0.834 -0.427,-0.556 -0.64,-1.31 -0.64,-2.26 0,-0.95 0.213,-1.704 0.64,-2.26 0.427,-0.556 1.007,-0.834 1.742,-0.834 0.734,0 1.314,0.278 1.741,0.834 0.427,0.556 0.64,1.31 0.64,2.26 m 1.571,0 c 0,-0.669 -0.096,-1.274 -0.291,-1.814 -0.194,-0.54 -0.468,-1.005 -0.818,-1.394 -0.351,-0.388 -0.77,-0.688 -1.256,-0.898 -0.485,-0.211 -1.015,-0.316 -1.587,-0.316 -0.573,0 -1.102,0.105 -1.588,0.316 -0.486,0.21 -0.904,0.51 -1.256,0.898 -0.35,0.389 -0.623,0.854 -0.817,1.394 -0.194,0.54 -0.292,1.145 -0.292,1.814 0,0.659 0.098,1.261 0.292,1.807 0.194,0.545 0.467,1.012 0.817,1.401 0.352,0.389 0.77,0.688 1.256,0.899 0.486,0.21 1.015,0.316 1.588,0.316 0.572,0 1.102,-0.106 1.587,-0.316 0.486,-0.211 0.905,-0.51 1.256,-0.899 0.35,-0.389 0.624,-0.856 0.818,-1.401 0.195,-0.546 0.291,-1.148 0.291,-1.807" /></g><g
           transform="translate(254.2084,66.6255)"
           id="g174"><path
             id="path176"
             style="fill:#2b2b2a;fill-opacity:1;fill-rule:nonzero;stroke:none"
             d="m 0,0 c -0.27,0 -0.499,0.089 -0.688,0.267 -0.189,0.178 -0.284,0.419 -0.284,0.721 0,0.303 0.095,0.543 0.284,0.721 C -0.499,1.887 -0.27,1.977 0,1.977 0.27,1.977 0.5,1.887 0.688,1.709 0.878,1.531 0.973,1.291 0.973,0.988 0.973,0.686 0.878,0.445 0.688,0.267 0.5,0.089 0.27,0 0,0 m -2.122,-12.976 c -0.13,0 -0.297,0.016 -0.502,0.048 -0.205,0.033 -0.378,0.076 -0.519,0.13 l 0.195,1.231 c 0.108,-0.032 0.232,-0.059 0.373,-0.081 0.139,-0.021 0.269,-0.032 0.388,-0.032 0.519,0 0.888,0.159 1.11,0.478 0.222,0.318 0.332,0.785 0.332,1.401 v 8.278 h 1.507 v -8.262 c 0,-1.08 -0.246,-1.882 -0.738,-2.405 -0.491,-0.524 -1.207,-0.786 -2.146,-0.786" /></g><g
           transform="translate(22.6772,195.74)"
           id="g178"><path
             id="path180"
             style="fill:none;stroke:#1c1b18;stroke-width:0.30000001;stroke-linecap:butt;stroke-linejoin:miter;stroke-miterlimit:4;stroke-dasharray:none;stroke-opacity:1"
             d="M 0,0 V -36" /></g><g
           transform="translate(-14.3228,158.74)"
           id="g182"><path
             id="path184"
             style="fill:none;stroke:#1c1b18;stroke-width:0.30000001;stroke-linecap:butt;stroke-linejoin:miter;stroke-miterlimit:4;stroke-dasharray:none;stroke-opacity:1"
             d="M 0,0 H 36" /></g><g
           transform="translate(-14.3228,22.6772)"
           id="g186"><path
             id="path188"
             style="fill:none;stroke:#1c1b18;stroke-width:0.30000001;stroke-linecap:butt;stroke-linejoin:miter;stroke-miterlimit:4;stroke-dasharray:none;stroke-opacity:1"
             d="M 0,0 H 36" /></g><g
           transform="translate(22.6772,-14.3228)"
           id="g190"><path
             id="path192"
             style="fill:none;stroke:#1c1b18;stroke-width:0.30000001;stroke-linecap:butt;stroke-linejoin:miter;stroke-miterlimit:4;stroke-dasharray:none;stroke-opacity:1"
             d="M 0,0 V 36" /></g><g
           transform="translate(277.8582,195.74)"
           id="g194"><path
             id="path196"
             style="fill:none;stroke:#1c1b18;stroke-width:0.30000001;stroke-linecap:butt;stroke-linejoin:miter;stroke-miterlimit:4;stroke-dasharray:none;stroke-opacity:1"
             d="M 0,0 V -36" /></g><g
           transform="translate(314.8582,158.74)"
           id="g198"><path
             id="path200"
             style="fill:none;stroke:#1c1b18;stroke-width:0.30000001;stroke-linecap:butt;stroke-linejoin:miter;stroke-miterlimit:4;stroke-dasharray:none;stroke-opacity:1"
             d="M 0,0 H -36" /></g><g
           transform="translate(314.8582,22.6772)"
           id="g202"><path
             id="path204"
             style="fill:none;stroke:#1c1b18;stroke-width:0.30000001;stroke-linecap:butt;stroke-linejoin:miter;stroke-miterlimit:4;stroke-dasharray:none;stroke-opacity:1"
             d="M 0,0 H -36" /></g><g
           transform="translate(277.8582,-14.3228)"
           id="g206"><path
             id="path208"
             style="fill:none;stroke:#1c1b18;stroke-width:0.30000001;stroke-linecap:butt;stroke-linejoin:miter;stroke-miterlimit:4;stroke-dasharray:none;stroke-opacity:1"
             d="M 0,0 V 36" /></g></g></g></g></svg>