<svg viewBox="0 0 240.71 147.61" xmlns="http://www.w3.org/2000/svg"><path d="m143.03 90.71-45.35-8.51v-68.03l45.35-14.17z" fill="#164194"/><path d="m97.68 65.85v-17.66c2.28.62 4.83.91 6.5-.1 3.66-2.18 9.21-8.87 9.21-8.87s-2.92 7.21-1.82 9.86c1.17 2.82 8.1 3 8.1 3s-7.84 4.76-11.48 7.92-6.36 15-6.36 15-1.82-7.59-4.15-9.18" fill="#ffed00"/><path d="m143 34.69a14.18 14.18 0 0 1 -4.26 2c-3.65.7-7.55-3.49-7.55-3.49s.92 6.12-1.37 9.89c-2.42 4-10.18 9-10.18 9s8.58-1.66 10.25 1c1.77 2.85 2 12.79 2 12.79s4.37-11.93 8.34-13.56a23.42 23.42 0 0 1 2.76-.92z" fill="#e30613"/><path d="m113.39 39.22s4.39-6.87 4.12-9.32-4.8-3.15-4.8-3.15 6-1.47 8.55-3.8 4.74-6.95 4.74-6.95.55 3.87 2.78 4.42 8.44-1.9 8.44-1.9a86.69 86.69 0 0 0 -6.75 7.09c-2 2.61.8 7.57.8 7.57s-5.14-1.79-8-1.25-9.81 7.27-9.81 7.27" fill="#fff"/><g fill="#1d1d1b"><path d="m0 121.89v-17h10.75v2.63h-7.66v4.35h6.8v2.62h-6.8v7.42z"/><path d="m23.22 121.22c-.57.15-1.31.3-2.23.46a18.73 18.73 0 0 1 -3 .23 6.73 6.73 0 0 1 -2.59-.44 4.14 4.14 0 0 1 -1.67-1.23 4.77 4.77 0 0 1 -.9-1.88 9.87 9.87 0 0 1 -.27-2.39v-7.19h3v6.72a5.34 5.34 0 0 0 .61 3 2.34 2.34 0 0 0 2.09.88h1.15a5.46 5.46 0 0 0 .89-.12v-10.48h3z"/><path d="m26.86 109.47a18.65 18.65 0 0 1 2.23-.47 19 19 0 0 1 3-.22 6.92 6.92 0 0 1 2.63.43 4 4 0 0 1 1.68 1.2 4.71 4.71 0 0 1 .89 1.87 10.44 10.44 0 0 1 .25 2.39v7.22h-3v-6.75a9.81 9.81 0 0 0 -.13-1.76 3.27 3.27 0 0 0 -.41-1.18 1.83 1.83 0 0 0 -.84-.66 3.48 3.48 0 0 0 -1.29-.21c-.37 0-.77 0-1.18.07s-.71.09-.9.13v10.36h-3z"/><path d="m51.92 121.2a18.19 18.19 0 0 1 -2.22.49 16.94 16.94 0 0 1 -2.81.22 7.31 7.31 0 0 1 -2.73-.47 5.72 5.72 0 0 1 -2-1.33 6 6 0 0 1 -1.3-2.11 8.16 8.16 0 0 1 -.45-2.79 9.16 9.16 0 0 1 .38-2.76 6 6 0 0 1 1.11-2.13 5.14 5.14 0 0 1 1.8-1.36 6.32 6.32 0 0 1 4.07-.26 7.64 7.64 0 0 1 1.23.5v-3.83l3-.5zm-8.52-6.06a4.68 4.68 0 0 0 .93 3.08 3.2 3.2 0 0 0 2.58 1.11 10.55 10.55 0 0 0 1.22-.06 7.93 7.93 0 0 0 .82-.13v-7.37a4.82 4.82 0 0 0 -1-.5 4 4 0 0 0 -1.39-.23 2.65 2.65 0 0 0 -2.37 1.1 5.29 5.29 0 0 0 -.79 3z"/><path d="m66.08 121.22c-.57.15-1.31.3-2.23.46a18.73 18.73 0 0 1 -3 .23 6.77 6.77 0 0 1 -2.59-.44 4.14 4.14 0 0 1 -1.67-1.23 4.77 4.77 0 0 1 -.9-1.88 9.87 9.87 0 0 1 -.29-2.36v-7.19h3v6.72a5.44 5.44 0 0 0 .6 3 2.35 2.35 0 0 0 2.1.88 11.36 11.36 0 0 0 1.14 0 5.46 5.46 0 0 0 .89-.12v-10.51h3z"/><path d="m72.93 119.46a3.86 3.86 0 0 0 1.72-.29 1 1 0 0 0 .54-1 1.25 1.25 0 0 0 -.58-1 8.45 8.45 0 0 0 -1.9-.91 13.72 13.72 0 0 1 -1.48-.63 4.94 4.94 0 0 1 -1.17-.77 3 3 0 0 1 -.77-1.07 3.63 3.63 0 0 1 -.29-1.53 3.35 3.35 0 0 1 1.31-2.79 5.55 5.55 0 0 1 3.53-1 11.68 11.68 0 0 1 3.71.62l-.54 2.4a8.05 8.05 0 0 0 -1.25-.4 7.74 7.74 0 0 0 -1.77-.19 3.16 3.16 0 0 0 -1.48.31 1 1 0 0 0 -.56 1 1.4 1.4 0 0 0 .11.56 1.16 1.16 0 0 0 .38.46 4.8 4.8 0 0 0 .71.41c.3.14.66.28 1.08.43a15.3 15.3 0 0 1 1.8.78 5 5 0 0 1 1.21.85 3 3 0 0 1 .7 1.1 4.29 4.29 0 0 1 .22 1.47 3.17 3.17 0 0 1 -1.36 2.73 6.8 6.8 0 0 1 -3.89.94 10.64 10.64 0 0 1 -2.73-.28 13.67 13.67 0 0 1 -1.45-.46l.52-2.47a12.85 12.85 0 0 0 1.58.51 8.4 8.4 0 0 0 2.1.22z"/><path d="m89.77 111.13c-.33.35-.76.83-1.29 1.45s-1.1 1.32-1.7 2.08-1.22 1.55-1.78 2.34-1.17 1.61-1.66 2.37h6.63v2.48h-10.26v-1.84a22.76 22.76 0 0 1 1.35-2.14c.54-.77 1.09-1.54 1.67-2.32s1.14-1.52 1.7-2.22 1.07-1.32 1.51-1.84h-5.94v-2.48h9.74z"/><path d="m91.39 115.23a8.21 8.21 0 0 1 .5-3 6.36 6.36 0 0 1 1.34-2.12 5.72 5.72 0 0 1 1.92-1.28 6 6 0 0 1 2.21-.43 5.28 5.28 0 0 1 4.13 1.65 7.12 7.12 0 0 1 1.51 4.95v.55s0 .39 0 .55h-8.54a3.43 3.43 0 0 0 1.09 2.4 4.19 4.19 0 0 0 2.81.84 9.37 9.37 0 0 0 2-.19 7.62 7.62 0 0 0 1.41-.42l.39 2.43a5 5 0 0 1 -.67.26 9.39 9.39 0 0 1 -1 .24c-.37.08-.77.14-1.19.19a11.26 11.26 0 0 1 -1.31.07 8 8 0 0 1 -2.94-.5 5.46 5.46 0 0 1 -2.05-1.42 5.88 5.88 0 0 1 -1.21-2.11 8.7 8.7 0 0 1 -.4-2.66zm8.62-1.32a4.09 4.09 0 0 0 -.17-1.17 3 3 0 0 0 -.51-1 2.28 2.28 0 0 0 -.81-.63 2.52 2.52 0 0 0 -1.14-.24 2.65 2.65 0 0 0 -1.2.26 2.56 2.56 0 0 0 -.87.68 3.1 3.1 0 0 0 -.56 1 5.29 5.29 0 0 0 -.27 1.11z"/><path d="m111.69 121.89v-17h10.93v2.63h-7.83v4.2h7v2.58h-7v5h8.42v2.63z"/><path d="m135.9 121.22c-.58.15-1.32.3-2.24.46a18.64 18.64 0 0 1 -3 .23 6.77 6.77 0 0 1 -2.59-.44 4.21 4.21 0 0 1 -1.67-1.23 4.89 4.89 0 0 1 -.89-1.88 9.87 9.87 0 0 1 -.27-2.39v-7.19h3v6.72a5.44 5.44 0 0 0 .6 3 2.35 2.35 0 0 0 2.1.88 11.36 11.36 0 0 0 1.14 0 5.79 5.79 0 0 0 .9-.12v-10.48h3z"/><path d="m146.85 111.72c-.25-.08-.59-.16-1-.25a7.54 7.54 0 0 0 -1.51-.14 7.54 7.54 0 0 0 -1.82.27v10.29h-3v-12.23a17 17 0 0 1 2.15-.6 13.27 13.27 0 0 1 2.86-.28h.69l.78.1c.26 0 .52.09.76.15l.59.16z"/><path d="m160.89 115.14a8.13 8.13 0 0 1 -.45 2.77 6.14 6.14 0 0 1 -1.25 2.14 5.78 5.78 0 0 1 -1.95 1.37 6.24 6.24 0 0 1 -2.51.49 6.18 6.18 0 0 1 -2.51-.49 5.84 5.84 0 0 1 -1.94-1.37 6.31 6.31 0 0 1 -1.26-2.14 8.57 8.57 0 0 1 0-5.54 6.34 6.34 0 0 1 1.27-2.12 5.62 5.62 0 0 1 2-1.36 6.23 6.23 0 0 1 2.48-.48 6.39 6.39 0 0 1 2.49.48 5.49 5.49 0 0 1 1.95 1.36 6.32 6.32 0 0 1 1.26 2.12 7.85 7.85 0 0 1 .42 2.77zm-3 0a5 5 0 0 0 -.82-3 2.93 2.93 0 0 0 -4.59 0 6.08 6.08 0 0 0 0 6.1 2.9 2.9 0 0 0 4.59 0 5.07 5.07 0 0 0 .77-3.1z"/><path d="m175.37 115.48a9.22 9.22 0 0 1 -.38 2.7 6.3 6.3 0 0 1 -1.09 2.11 5 5 0 0 1 -1.78 1.38 5.84 5.84 0 0 1 -2.42.49 6.25 6.25 0 0 1 -1.67-.22 6.35 6.35 0 0 1 -1.25-.5v5h-3v-17a22.23 22.23 0 0 1 2.22-.44 16.81 16.81 0 0 1 2.8-.22 7.55 7.55 0 0 1 2.73.46 5.88 5.88 0 0 1 2.05 1.34 6.1 6.1 0 0 1 1.3 2.11 8.16 8.16 0 0 1 .49 2.79zm-3 0a4.74 4.74 0 0 0 -.9-3.09 3.49 3.49 0 0 0 -2.88-1.11 8.71 8.71 0 0 0 -.87 0 4.46 4.46 0 0 0 -.9.16v7.34a4.39 4.39 0 0 0 1 .5 4 4 0 0 0 1.39.23 2.65 2.65 0 0 0 2.37-1.1 5.23 5.23 0 0 0 .75-2.88z"/><path d="m177.58 115.23a8.21 8.21 0 0 1 .5-3 6.21 6.21 0 0 1 1.34-2.12 5.72 5.72 0 0 1 1.92-1.28 6 6 0 0 1 2.21-.43 5.28 5.28 0 0 1 4.13 1.65 7.12 7.12 0 0 1 1.49 4.91v.55s0 .39 0 .55h-8.47a3.39 3.39 0 0 0 1.09 2.4 4.17 4.17 0 0 0 2.81.84 9.37 9.37 0 0 0 2-.19 7.87 7.87 0 0 0 1.41-.42l.39 2.43a5 5 0 0 1 -.67.26 9 9 0 0 1 -1 .24 11.89 11.89 0 0 1 -1.19.19 11.09 11.09 0 0 1 -1.3.07 7.93 7.93 0 0 1 -2.94-.5 5.46 5.46 0 0 1 -2.06-1.4 5.6 5.6 0 0 1 -1.24-2.08 8.7 8.7 0 0 1 -.42-2.67zm8.62-1.32a3.77 3.77 0 0 0 -.18-1.17 2.83 2.83 0 0 0 -.5-1 2.28 2.28 0 0 0 -.81-.63 2.52 2.52 0 0 0 -1.14-.24 2.65 2.65 0 0 0 -1.2.26 2.56 2.56 0 0 0 -.87.68 2.91 2.91 0 0 0 -.56 1 5.29 5.29 0 0 0 -.27 1.11z"/><path d="m190.52 126.45c-.22 0-.51 0-.9-.06a4.25 4.25 0 0 1 -1-.23l.4-2.43a4.46 4.46 0 0 0 1.3.17 1.62 1.62 0 0 0 1.44-.6 3.16 3.16 0 0 0 .42-1.81v-12.44h3v12.49a5.06 5.06 0 0 1 -1.19 3.71 4.6 4.6 0 0 1 -3.47 1.2zm4.93-21.16a1.71 1.71 0 0 1 -.54 1.33 1.81 1.81 0 0 1 -1.28.49 1.86 1.86 0 0 1 -1.3-.49 1.71 1.71 0 0 1 -.54-1.33 1.74 1.74 0 0 1 .54-1.35 1.86 1.86 0 0 1 1.3-.49 1.81 1.81 0 0 1 1.28.49 1.74 1.74 0 0 1 .54 1.35z"/><path d="m202 119.46a3.86 3.86 0 0 0 1.72-.29 1 1 0 0 0 .54-1 1.25 1.25 0 0 0 -.58-1 8.45 8.45 0 0 0 -1.9-.91 12.91 12.91 0 0 1 -1.48-.63 4.75 4.75 0 0 1 -1.17-.77 3 3 0 0 1 -.77-1.07 3.63 3.63 0 0 1 -.29-1.53 3.37 3.37 0 0 1 1.3-2.79 5.6 5.6 0 0 1 3.54-1 11.68 11.68 0 0 1 3.71.62l-.54 2.4a7.87 7.87 0 0 0 -1.26-.4 7.59 7.59 0 0 0 -1.76-.19 3.16 3.16 0 0 0 -1.48.31 1 1 0 0 0 -.56 1 1.4 1.4 0 0 0 .11.56 1.16 1.16 0 0 0 .38.46 4.8 4.8 0 0 0 .71.41c.3.14.66.28 1.08.43a14.39 14.39 0 0 1 1.79.78 4.86 4.86 0 0 1 1.22.85 3 3 0 0 1 .7 1.1 4.29 4.29 0 0 1 .22 1.47 3.17 3.17 0 0 1 -1.36 2.79 6.8 6.8 0 0 1 -3.89.94 10.64 10.64 0 0 1 -2.73-.28 12.93 12.93 0 0 1 -1.45-.46l.52-2.47a12.85 12.85 0 0 0 1.58.51 8.4 8.4 0 0 0 2.1.16z"/><path d="m212.81 114.06 1.2-1.27 1.25-1.35 1.17-1.3.94-1.09h3.51c-.82.91-1.68 1.86-2.59 2.85s-1.82 1.93-2.73 2.87a17.26 17.26 0 0 1 1.54 1.48 24 24 0 0 1 1.57 1.86c.51.65 1 1.31 1.43 2a18.38 18.38 0 0 1 1.1 1.82h-3.44c-.29-.51-.63-1-1-1.6s-.8-1.1-1.24-1.62-.9-1-1.35-1.48a11.9 11.9 0 0 0 -1.35-1.2v5.9h-3v-16.56l3-.5z"/><path d="m226.53 105.29a1.71 1.71 0 0 1 -.54 1.33 1.94 1.94 0 0 1 -2.58 0 1.71 1.71 0 0 1 -.54-1.33 1.74 1.74 0 0 1 .54-1.35 1.94 1.94 0 0 1 2.58 0 1.74 1.74 0 0 1 .54 1.35zm-.32 16.6h-3v-12.84h3z"/><path d="m229.13 115.23a8.21 8.21 0 0 1 .5-3 6.21 6.21 0 0 1 1.34-2.12 5.68 5.68 0 0 1 1.91-1.28 6.07 6.07 0 0 1 2.21-.43 5.28 5.28 0 0 1 4.14 1.65 7.12 7.12 0 0 1 1.48 4.91v.55s0 .39 0 .55h-8.51a3.39 3.39 0 0 0 1.09 2.4 4.17 4.17 0 0 0 2.81.84 9.37 9.37 0 0 0 2-.19 8.14 8.14 0 0 0 1.41-.42l.39 2.43a5 5 0 0 1 -.67.26 9 9 0 0 1 -1 .24 11.89 11.89 0 0 1 -1.19.19 11.09 11.09 0 0 1 -1.3.07 7.93 7.93 0 0 1 -2.94-.5 5.5 5.5 0 0 1 -2.07-1.4 5.72 5.72 0 0 1 -1.2-2.11 8.7 8.7 0 0 1 -.4-2.64zm8.62-1.32a3.77 3.77 0 0 0 -.18-1.17 2.83 2.83 0 0 0 -.5-1 2.28 2.28 0 0 0 -.81-.63 2.52 2.52 0 0 0 -1.14-.24 2.65 2.65 0 0 0 -1.2.26 2.7 2.7 0 0 0 -.88.68 3.07 3.07 0 0 0 -.55 1 5.29 5.29 0 0 0 -.27 1.11z"/><path d="m49.47 133.34h1.53v11.22h-1.53z"/><path d="m53.65 136.38c.34-.08.8-.17 1.37-.27a11.65 11.65 0 0 1 2-.15 4.24 4.24 0 0 1 1.67.29 2.67 2.67 0 0 1 1.06.79 3.18 3.18 0 0 1 .56 1.22 7 7 0 0 1 .16 1.57v4.73h-1.53v-4.4a7.28 7.28 0 0 0 -.1-1.33 2.27 2.27 0 0 0 -.35-.89 1.41 1.41 0 0 0 -.65-.5 2.89 2.89 0 0 0 -1-.15h-.5-.5l-.42.05h-.27v7.11h-1.5z"/><path d="m64.27 136h3.2v1.26h-3.2v3.89a4.87 4.87 0 0 0 .1 1 1.64 1.64 0 0 0 .29.65 1 1 0 0 0 .49.33 2 2 0 0 0 .68.1 3.25 3.25 0 0 0 1.09-.15l.58-.22.29 1.25a8 8 0 0 1 -.8.28 4.53 4.53 0 0 1 -1.29.17 3.85 3.85 0 0 1 -1.42-.22 2.08 2.08 0 0 1 -.9-.66 2.84 2.84 0 0 1 -.48-1.07 7.31 7.31 0 0 1 -.13-1.49v-7.52l1.5-.26z"/><path d="m68.66 140.17a5.31 5.31 0 0 1 .33-1.95 3.91 3.91 0 0 1 .86-1.38 3.43 3.43 0 0 1 1.23-.83 3.89 3.89 0 0 1 1.42-.27 3.22 3.22 0 0 1 2.61 1.06 4.83 4.83 0 0 1 .89 3.2v.25a2.3 2.3 0 0 1 0 .28h-5.77a3.1 3.1 0 0 0 .77 2 2.79 2.79 0 0 0 2.07.68 5.68 5.68 0 0 0 1.34-.14 4.18 4.18 0 0 0 .81-.27l.21 1.27a5 5 0 0 1 -1 .3 6.74 6.74 0 0 1 -1.56.16 5 5 0 0 1 -1.91-.33 3.58 3.58 0 0 1 -1.32-.91 3.84 3.84 0 0 1 -.77-1.39 6.08 6.08 0 0 1 -.21-1.73zm5.79-.82a2.55 2.55 0 0 0 -.51-1.68 1.75 1.75 0 0 0 -1.45-.65 2 2 0 0 0 -.92.2 2.16 2.16 0 0 0 -.67.52 2.53 2.53 0 0 0 -.43.75 3.7 3.7 0 0 0 -.2.86z"/><path d="m80.64 144.56a2.94 2.94 0 0 1 -2-.59 2.37 2.37 0 0 1 -.58-1.77v-10.11l1.5-.26v10.17a2.13 2.13 0 0 0 .07.61.8.8 0 0 0 .6.61 3.51 3.51 0 0 0 .6.12z"/><path d="m83.19 134.62a1 1 0 1 1 0-2 1 1 0 0 1 .69.27 1 1 0 0 1 0 1.44 1 1 0 0 1 -.69.29zm.77 9.94h-1.51v-8.42h1.55z"/><path d="m91.75 143.72a3.47 3.47 0 0 1 -.76.33 3.65 3.65 0 0 1 -1.3.21 4 4 0 0 1 -1.43-.25 3.13 3.13 0 0 1 -1.18-.75 3.61 3.61 0 0 1 -.79-1.27 5 5 0 0 1 -.29-1.82 5.08 5.08 0 0 1 .27-1.69 4 4 0 0 1 .8-1.33 3.77 3.77 0 0 1 1.29-.87 4.47 4.47 0 0 1 1.72-.32 9.13 9.13 0 0 1 1.84.16c.52.1 1 .19 1.32.28v7.52a3.58 3.58 0 0 1 -1 2.82 4.54 4.54 0 0 1 -3 .87 8 8 0 0 1 -1.5-.13 8.61 8.61 0 0 1 -1.22-.31l.27-1.31a7.63 7.63 0 0 0 1.11.32 6.85 6.85 0 0 0 1.37.13 2.85 2.85 0 0 0 1.94-.53 2.2 2.2 0 0 0 .59-1.7zm0-6.25a6 6 0 0 0 -.61-.12 6.78 6.78 0 0 0 -1-.06 2.34 2.34 0 0 0 -1.88.79 3.26 3.26 0 0 0 -.65 2.11 3.57 3.57 0 0 0 .19 1.25 2.5 2.5 0 0 0 .5.86 2 2 0 0 0 .73.5 2.25 2.25 0 0 0 .85.16 3.52 3.52 0 0 0 1.1-.17 2.43 2.43 0 0 0 .79-.4z"/><path d="m95.28 140.17a5.53 5.53 0 0 1 .32-1.95 4.21 4.21 0 0 1 .86-1.38 3.62 3.62 0 0 1 1.23-.83 3.94 3.94 0 0 1 1.43-.27 3.25 3.25 0 0 1 2.61 1.06 4.88 4.88 0 0 1 .9 3.23v.25a2.44 2.44 0 0 1 0 .28h-5.78a3.15 3.15 0 0 0 .76 2 2.83 2.83 0 0 0 2.08.68 5.53 5.53 0 0 0 1.33-.14 4.33 4.33 0 0 0 .82-.27l.21 1.27a5 5 0 0 1 -1 .3 6.77 6.77 0 0 1 -1.57.16 5 5 0 0 1 -1.9-.33 3.58 3.58 0 0 1 -1.32-.91 3.7 3.7 0 0 1 -.77-1.39 5.76 5.76 0 0 1 -.21-1.76zm5.78-.82a2.55 2.55 0 0 0 -.51-1.68 1.74 1.74 0 0 0 -1.45-.67 1.91 1.91 0 0 0 -.91.2 2 2 0 0 0 -.67.52 2.33 2.33 0 0 0 -.43.75 3.73 3.73 0 0 0 -.21.86z"/><path d="m104.72 136.38q.52-.12 1.38-.27a11.57 11.57 0 0 1 2-.15 4.27 4.27 0 0 1 1.67.29 2.67 2.67 0 0 1 1.06.79 3.18 3.18 0 0 1 .56 1.22 7.65 7.65 0 0 1 .16 1.57v4.73h-1.55v-4.4a7.28 7.28 0 0 0 -.1-1.33 2.27 2.27 0 0 0 -.35-.89 1.41 1.41 0 0 0 -.65-.5 2.93 2.93 0 0 0 -1-.15h-.51-.49l-.42.05h-.27v7.11h-1.51z"/><path d="m115.35 136h3.19v1.26h-3.19v3.89a4.3 4.3 0 0 0 .1 1 1.51 1.51 0 0 0 .29.65 1 1 0 0 0 .49.33 2 2 0 0 0 .68.1 3.29 3.29 0 0 0 1.09-.15l.57-.22.3 1.25a8 8 0 0 1 -.8.28 4.63 4.63 0 0 1 -1.29.17 3.81 3.81 0 0 1 -1.42-.22 2.08 2.08 0 0 1 -.9-.66 2.56 2.56 0 0 1 -.48-1.07 7.26 7.26 0 0 1 -.14-1.49v-7.52l1.51-.26z"/><path d="m120.37 136.38q.52-.12 1.38-.27a11.57 11.57 0 0 1 2-.15 4.19 4.19 0 0 1 1.66.29 2.63 2.63 0 0 1 1.07.79 3 3 0 0 1 .55 1.22 7 7 0 0 1 .17 1.57v4.73h-1.51v-4.4a7.28 7.28 0 0 0 -.1-1.33 2.43 2.43 0 0 0 -.35-.89 1.41 1.41 0 0 0 -.65-.5 3 3 0 0 0 -1-.15h-.5-.49l-.42.05h-.27v7.11h-1.51z"/><path d="m128.31 146.14a3.56 3.56 0 0 0 .46.15 2.2 2.2 0 0 0 .56.07 2.24 2.24 0 0 0 1.4-.39 3.55 3.55 0 0 0 .9-1.29q-1-2-1.9-4.12a36.34 36.34 0 0 1 -1.47-4.42h1.62c.12.49.26 1 .43 1.57s.36 1.14.56 1.74.43 1.18.67 1.78.48 1.16.74 1.71c.41-1.13.77-2.25 1.07-3.36s.59-2.26.86-3.44h1.55c-.39 1.59-.82 3.11-1.29 4.58s-1 2.83-1.54 4.1a9.08 9.08 0 0 1 -.67 1.26 4.12 4.12 0 0 1 -.77.87 3 3 0 0 1 -1 .5 4 4 0 0 1 -1.19.16h-.37l-.38-.07-.35-.09-.21-.08z"/><path d="m146.52 139.87.66.85c.26.35.53.74.81 1.16s.56.88.84 1.34a13.36 13.36 0 0 1 .7 1.34h-1.71c-.22-.41-.46-.82-.71-1.24s-.51-.83-.77-1.21-.51-.74-.77-1.08-.48-.62-.69-.87h-2.28v4.39h-1.6v-11.05a8.89 8.89 0 0 1 1.48-.22q.83-.06 1.5-.06a6.05 6.05 0 0 1 3.6.9 3.43 3.43 0 0 1 .65 4.56 3.46 3.46 0 0 1 -1.71 1.19zm-2.38-5.27c-.67 0-1.18 0-1.54.05v4.23h1.12a12.84 12.84 0 0 0 1.46-.08 3.51 3.51 0 0 0 1.09-.31 1.59 1.59 0 0 0 .69-.64 2.17 2.17 0 0 0 .24-1.09 2.13 2.13 0 0 0 -.24-1.06 1.74 1.74 0 0 0 -.66-.66 2.78 2.78 0 0 0 -1-.34 6.44 6.44 0 0 0 -1.16-.1z"/><path d="m158.48 140.16a5.17 5.17 0 0 1 -.3 1.81 4.12 4.12 0 0 1 -.81 1.4 3.65 3.65 0 0 1 -1.26.89 3.8 3.8 0 0 1 -1.59.32 3.75 3.75 0 0 1 -1.58-.32 3.65 3.65 0 0 1 -1.26-.89 4.31 4.31 0 0 1 -.82-1.4 5.41 5.41 0 0 1 -.29-1.81 5.5 5.5 0 0 1 .29-1.81 4.31 4.31 0 0 1 .82-1.4 3.55 3.55 0 0 1 1.26-.9 3.91 3.91 0 0 1 1.58-.31 4 4 0 0 1 1.59.31 3.55 3.55 0 0 1 1.26.9 4.12 4.12 0 0 1 .81 1.4 5.25 5.25 0 0 1 .3 1.81zm-1.58 0a3.59 3.59 0 0 0 -.64-2.26 2.05 2.05 0 0 0 -1.74-.84 2.08 2.08 0 0 0 -1.74.84 4.31 4.31 0 0 0 0 4.52 2.1 2.1 0 0 0 1.74.83 2.07 2.07 0 0 0 1.74-.83 3.61 3.61 0 0 0 .64-2.26z"/><path d="m165.78 137.27c-.22.25-.52.6-.9 1.06s-.77.95-1.2 1.5-.85 1.13-1.28 1.74-.8 1.18-1.12 1.73h4.63v1.26h-6.43v-1c.26-.47.58-1 1-1.57s.77-1.14 1.19-1.71.82-1.1 1.21-1.6.74-.93 1-1.28h-4.16v-1.26h6.07z"/><path d="m174.63 144.56c-.3-.77-.63-1.66-1-2.66s-.65-2-.93-3.12c-.28 1.08-.59 2.12-.92 3.12s-.65 1.89-1 2.66h-1.31c-.5-1.11-1-2.38-1.46-3.8s-.92-3-1.34-4.62h1.62q.16.77.39 1.65c.15.6.31 1.19.47 1.79s.35 1.16.53 1.71.36 1 .52 1.44c.18-.5.36-1 .54-1.61s.35-1.14.51-1.71.32-1.15.46-1.71.28-1.07.39-1.56h1.24q.15.74.36 1.56t.45 1.71l.51 1.71c.18.57.36 1.11.55 1.61q.24-.61.51-1.44c.17-.55.35-1.12.52-1.71s.34-1.19.49-1.79.28-1.14.39-1.65h1.55c-.42 1.65-.87 3.19-1.34 4.62s-1 2.69-1.46 3.8z"/><path d="m187.49 140.16a5.41 5.41 0 0 1 -.29 1.81 4.31 4.31 0 0 1 -.82 1.4 3.65 3.65 0 0 1 -1.26.89 3.75 3.75 0 0 1 -1.58.32 3.8 3.8 0 0 1 -1.59-.32 3.75 3.75 0 0 1 -1.26-.89 4.12 4.12 0 0 1 -.81-1.4 5.17 5.17 0 0 1 -.3-1.81 5.25 5.25 0 0 1 .3-1.81 4.12 4.12 0 0 1 .81-1.4 3.64 3.64 0 0 1 1.26-.9 4 4 0 0 1 1.59-.31 3.91 3.91 0 0 1 1.58.31 3.55 3.55 0 0 1 1.26.9 4.31 4.31 0 0 1 .82 1.4 5.5 5.5 0 0 1 .29 1.81zm-1.57 0a3.59 3.59 0 0 0 -.64-2.26 2.08 2.08 0 0 0 -1.74-.84 2.05 2.05 0 0 0 -1.74.84 4.31 4.31 0 0 0 0 4.52 2.07 2.07 0 0 0 1.74.83 2.1 2.1 0 0 0 1.74-.83 3.61 3.61 0 0 0 .64-2.26zm-.42-7.16-2.29 2.22-.76-.68 2.08-2.5z"/><path d="m188.15 147.59a3.52 3.52 0 0 1 -.5 0 3.93 3.93 0 0 1 -.52-.13l.2-1.24a2.87 2.87 0 0 0 .37.09h.39a1.25 1.25 0 0 0 1.11-.48 2.48 2.48 0 0 0 .33-1.4v-8.28h1.47v8.26a3.44 3.44 0 0 1 -.74 2.41 2.82 2.82 0 0 1 -2.11.77zm2.13-13a1 1 0 0 1 -.69-.27 1 1 0 0 1 0-1.44 1 1 0 0 1 .69-.27.93.93 0 0 1 .68.27 1 1 0 0 1 0 1.44.93.93 0 0 1 -.68.3z"/></g></svg>