<svg width="89" height="18" viewBox="0 0 89 18" fill="none" xmlns="http://www.w3.org/2000/svg">
<path d="M26.4358 4.36582C22.7457 4.36582 19.741 7.29157 19.741 10.8846C19.741 14.4776 22.7457 17.4034 26.4358 17.4034C27.9645 17.4034 29.4405 16.8901 30.6266 15.9662C30.6266 16.2228 30.6793 16.4538 30.8375 16.6848C31.022 16.9671 31.3119 17.1468 31.6282 17.1981C31.9445 17.2751 32.2871 17.1981 32.577 17.0184C32.7879 16.8901 32.9724 16.6848 33.0515 16.4538C33.0515 16.4538 33.0515 16.4281 33.0778 16.4025C33.0778 16.3768 33.1042 16.3512 33.1042 16.2998C33.1305 16.1972 33.1569 16.0945 33.1569 15.9918V10.5766L33.1305 10.6023C32.946 7.13759 30.0204 4.36582 26.4358 4.36582ZM26.4358 15.0936C24.0373 15.0936 22.1132 13.1944 22.1132 10.8846C22.1132 8.57479 24.0636 6.67563 26.4358 6.67563C28.8343 6.67563 30.7584 8.57479 30.7584 10.8846C30.7584 13.1944 28.8079 15.0936 26.4358 15.0936ZM18.5813 4.77645C18.265 4.69945 17.9223 4.77645 17.6324 4.9561C17.4216 5.11009 17.2371 5.28974 17.158 5.54638L17.1316 5.57206L14.1796 12.7325L11.2803 5.67471C11.2539 5.54638 11.1749 5.41806 11.1221 5.28974C10.8849 4.9561 10.4896 4.75079 10.0679 4.75079C9.64613 4.75079 9.25077 4.9561 9.01356 5.28974C8.93448 5.3924 8.88177 5.52072 8.85541 5.67471L5.9561 12.7325L3.00408 5.57206C3.00408 5.54639 3.00408 5.54638 2.97772 5.54638C2.87229 5.3154 2.71415 5.11009 2.50329 4.9561C1.92343 4.57114 1.15906 4.72512 0.763704 5.28974C0.526488 5.62338 0.500128 6.05967 0.658272 6.44464V6.47032L4.74366 16.3512V16.3768C4.84909 16.6078 5.00724 16.8131 5.2181 16.9414C5.42896 17.0698 5.69253 17.1468 5.92974 17.1468H5.9561C6.19332 17.1468 6.43053 17.0698 6.64139 16.9414C6.85225 16.8131 7.0104 16.6078 7.11583 16.3768L10.0679 9.24208L12.9935 16.3512V16.3768C13.0989 16.6078 13.2571 16.8131 13.468 16.9414C13.6788 17.0698 13.9424 17.1468 14.1796 17.1468C14.4432 17.1468 14.6804 17.0698 14.8912 16.9414C15.1021 16.8131 15.2603 16.6078 15.3657 16.3768L19.4511 6.47032V6.44464C19.6092 6.05967 19.5829 5.62338 19.3456 5.28974C19.1875 5.03309 18.8976 4.82778 18.5813 4.77645ZM37.7431 0.772788C37.3741 0.208169 36.5834 0.0541769 36.0035 0.439145C35.6608 0.670126 35.45 1.05509 35.45 1.46573V16.0175V16.0432C35.45 16.2742 35.5291 16.5051 35.6609 16.7105C35.8454 16.9928 36.1353 17.1724 36.4516 17.2237C36.5306 17.2494 36.6097 17.2494 36.6888 17.2494C36.926 17.2494 37.1632 17.1724 37.3741 17.0441C37.664 16.8644 37.8485 16.5821 37.9276 16.2228C37.9276 16.1458 37.9539 16.0945 37.9539 16.0432V1.51706V1.49139C37.9539 1.20908 37.9012 0.978105 37.7431 0.772788ZM59.3034 10.7563C58.8026 10.474 58.2491 10.243 57.6429 10.0377C57.063 9.85802 56.5359 9.67837 56.0351 9.47305C55.5607 9.2934 55.1389 9.08809 54.8227 8.85711C54.5327 8.6518 54.4009 8.39514 54.4009 8.0615C54.4009 7.57388 54.5854 7.24025 54.9808 7.0606C55.4025 6.85528 55.8769 6.72696 56.4305 6.72696C57.0103 6.72696 57.4848 6.82961 57.8538 7.03492C58.2755 7.2659 58.9344 7.7792 59.0398 7.85619C59.3034 8.03584 59.6197 8.08717 59.936 8.03585C60.2523 7.98452 60.5158 7.80486 60.674 7.54821C61.043 7.00926 60.8849 6.31633 60.3577 5.95703C60.3313 5.93136 59.5143 5.34107 58.7499 5.00743C58.1173 4.72513 57.3266 4.59679 56.4305 4.59679C55.7715 4.59679 55.1653 4.67379 54.6118 4.85344C54.0583 5.00743 53.5839 5.26408 53.1885 5.57206C52.7931 5.88003 52.4768 6.26499 52.2396 6.70129C52.0024 7.13758 51.897 7.62522 51.897 8.13851C51.897 8.83145 52.0815 9.42172 52.4241 9.85802C52.7668 10.2943 53.1885 10.6536 53.7156 10.9359C54.2164 11.2182 54.7699 11.4492 55.3762 11.6545C55.956 11.8342 56.4832 12.0138 56.984 12.2192C57.4584 12.3988 57.8801 12.6298 58.17 12.8608C58.46 13.0918 58.5918 13.3741 58.5918 13.7334C58.5918 14.221 58.4073 14.5803 58.0119 14.8369C57.5902 15.0936 57.0367 15.2476 56.325 15.2476C55.6397 15.2476 55.0599 15.1192 54.6382 14.8626C54.2164 14.6316 53.373 13.836 53.2412 13.759C52.6877 13.3997 51.9761 13.5537 51.6071 14.067C51.2644 14.5803 51.4489 15.1962 51.897 15.6325C52.3451 16.0432 52.7668 16.5308 53.7156 16.9414C54.4273 17.2751 55.3234 17.4291 56.325 17.4291C57.0367 17.4291 57.6956 17.3264 58.3018 17.1468C58.8817 16.9671 59.4088 16.6848 59.8306 16.3255C60.2523 15.9662 60.5949 15.5556 60.8321 15.0936C61.0694 14.606 61.1748 14.0927 61.1748 13.5281C61.1748 12.8608 60.9903 12.2962 60.6476 11.8599C60.2523 11.3979 59.8042 11.0386 59.3034 10.7563ZM88.9555 9.39606C88.1911 6.03401 84.8173 3.90385 81.2855 4.5198C79.5195 4.82778 77.9908 5.77736 76.9629 7.21458C75.9349 8.65179 75.5396 10.3713 75.8558 12.0908C76.1721 13.8617 77.2001 15.3759 78.7551 16.3768C78.7815 16.4025 78.8342 16.4281 78.8606 16.4538L78.9133 16.4795C80.0203 17.1724 81.2591 17.5061 82.4979 17.5061C84.3429 17.5061 86.1352 16.7618 87.4267 15.3246C87.5849 15.1449 87.6903 14.9396 87.7167 14.7086C87.7694 14.4006 87.6903 14.0927 87.4794 13.8617C87.2949 13.6051 87.005 13.4511 86.6887 13.4254C86.3724 13.3741 86.0561 13.4767 85.7926 13.6564L85.6608 13.8104C85.4499 14.0413 85.2127 14.2467 84.9491 14.4263L84.7646 14.529C84.2902 14.8369 83.763 15.0423 83.1832 15.1192C82.208 15.2989 81.18 15.1193 80.3366 14.6573L80.2048 14.5803C80.0467 14.4776 79.8885 14.375 79.7304 14.2723C79.0978 13.7847 78.6497 13.1431 78.3598 12.4245L87.8748 10.8589C88.3229 10.8076 88.7182 10.5253 88.8764 10.1147C89.0082 9.85802 89.0345 9.62704 88.9555 9.39606ZM78.228 10.2173C78.3598 9.52439 78.6497 8.8571 79.1241 8.31815C79.9676 7.29157 81.2064 6.72696 82.4979 6.72696C83.1041 6.72696 83.7103 6.85528 84.2902 7.11193C84.3429 7.13759 84.3693 7.16325 84.422 7.16325L84.5538 7.24025C84.8173 7.39424 85.0809 7.54823 85.3181 7.75354L85.3972 7.80486C85.7662 8.11283 86.0561 8.47214 86.2934 8.88277L78.228 10.2173ZM67.4742 4.5198C65.7083 4.82778 64.1795 5.77736 63.1516 7.21458C62.1236 8.65179 61.7283 10.3713 62.0446 12.0908C62.3609 13.8617 63.3888 15.3759 64.9439 16.3768C64.9702 16.4025 65.023 16.4281 65.0493 16.4538L65.102 16.4795C66.209 17.1724 67.4478 17.5061 68.6866 17.5061C70.5316 17.5061 72.324 16.7618 73.6155 15.3246C73.7736 15.1449 73.879 14.9396 73.9054 14.7086C73.9581 14.4006 73.879 14.0927 73.6682 13.8617C73.4837 13.6051 73.1937 13.4511 72.8775 13.4254C72.5612 13.3741 72.2449 13.4767 71.9813 13.6564L71.8495 13.7847L71.8232 13.8104C71.6123 14.0413 71.3751 14.221 71.1379 14.4006L70.9534 14.5033C70.4789 14.8113 69.9518 15.0166 69.3719 15.0936C68.3967 15.2732 67.3688 15.0936 66.5253 14.6316L66.3935 14.5546C66.2354 14.452 66.0772 14.3493 65.9191 14.2467C65.2865 13.759 64.8385 13.1174 64.5485 12.3988L74.0635 10.8333C74.5116 10.782 74.907 10.4996 75.0651 10.089C75.1442 9.88369 75.1705 9.65272 75.1178 9.42174C74.3535 6.05968 71.0061 3.90385 67.4742 4.5198ZM64.3904 10.2173C64.5222 9.52439 64.8121 8.8571 65.2865 8.31815C66.13 7.29157 67.3688 6.72696 68.6603 6.72696C69.2665 6.72696 69.8727 6.85528 70.4526 7.11193C70.5053 7.13759 70.5316 7.16325 70.5844 7.16325L70.7161 7.24025C70.9797 7.39424 71.2433 7.54823 71.4805 7.75354L71.5596 7.80486C71.9286 8.11283 72.2185 8.47214 72.4557 8.88277L64.3904 10.2173ZM50.3946 15.1192L45.9139 10.243L49.8938 6.93227C50.052 6.80395 50.1838 6.64996 50.2892 6.49597C50.3946 6.34199 50.4473 6.13666 50.4473 5.88002C50.4473 5.62337 50.3419 5.36673 50.1574 5.16142C49.9729 4.93044 49.683 4.80212 49.314 4.80212C49.1031 4.80212 48.8923 4.85344 48.7077 4.98176C48.5496 5.08442 48.3915 5.21275 48.2333 5.34107L42.8037 9.93503V1.46573V1.44006C42.8037 1.18341 42.7246 0.952438 42.5928 0.747122C42.4083 0.464812 42.1184 0.285161 41.8021 0.233832C41.4858 0.156838 41.1432 0.233827 40.8533 0.413479C40.5106 0.644459 40.2997 1.02943 40.2997 1.44006V1.46573V15.9918V16.0175C40.2997 16.0688 40.2998 16.1458 40.3261 16.2228V16.2485C40.3261 16.2998 40.3525 16.3768 40.3788 16.4281V16.4538C40.4052 16.5051 40.4315 16.5565 40.4579 16.6335L40.4842 16.6591L40.5106 16.6848C40.6951 16.9671 40.985 17.1468 41.3013 17.1981C41.3804 17.2238 41.4595 17.2237 41.5385 17.2237C41.7758 17.2237 42.013 17.1468 42.2238 17.0184C42.382 16.9158 42.5138 16.7875 42.5928 16.6335L42.6192 16.6078C42.6455 16.5565 42.6719 16.5051 42.6983 16.4538C42.6983 16.4281 42.7246 16.4025 42.7246 16.4025C42.751 16.3511 42.751 16.2998 42.7773 16.2485C42.7773 16.2228 42.7773 16.2228 42.7773 16.1972C42.7773 16.1458 42.8037 16.0688 42.8037 16.0432V12.8608L44.0952 11.8085L48.6287 16.7361C48.7605 16.8901 48.9186 17.0184 49.0504 17.0954C49.2085 17.1724 49.3667 17.1981 49.5775 17.1981C49.8675 17.1981 50.131 17.0954 50.3683 16.9158C50.6318 16.7361 50.7636 16.4281 50.7636 16.0688C50.7636 15.8635 50.7109 15.6839 50.6318 15.5299C50.5791 15.3759 50.5 15.2476 50.3946 15.1192Z" fill="#fff"/>
</svg>
